{
	"asset":{
		"generator":"Khronos glTF Blender I/O v4.0.44",
		"version":"2.0"
	},
	"extensionsUsed":[
		"KHR_materials_specular",
		"KHR_materials_ior"
	],
	"scene":0,
	"scenes":[
		{
			"name":"Scene",
			"nodes":[
				0
			]
		}
	],
	"nodes":[
		{
			"mesh":0,
			"name":"uploads_files_2619168_BOOK+FINAL",
			"rotation":[
				0.7071068286895752,
				0,
				0,
				0.7071068286895752
			]
		}
	],
	"materials":[
		{
			"doubleSided":true,
			"extensions":{
				"KHR_materials_specular":{
					"specularFactor":0
				},
				"KHR_materials_ior":{
					"ior":1.4500000476837158
				}
			},
			"name":"lambert4SG",
			"pbrMetallicRoughness":{
				"baseColorFactor":[
					0.800000011920929,
					0.800000011920929,
					0.800000011920929,
					1
				],
				"metallicFactor":0
			}
		}
	],
	"meshes":[
		{
			"name":"uploads_files_2619168_BOOK+FINAL",
			"primitives":[
				{
					"attributes":{
						"POSITION":0,
						"NORMAL":1,
						"TEXCOORD_0":2
					},
					"indices":3,
					"material":0
				}
			]
		}
	],
	"accessors":[
		{
			"bufferView":0,
			"componentType":5126,
			"count":248,
			"max":[
				0.605006992816925,
				-0.3304460048675537,
				0.5826230049133301
			],
			"min":[
				-8.721233367919922,
				-15.012080192565918,
				-0.4426639974117279
			],
			"type":"VEC3"
		},
		{
			"bufferView":1,
			"componentType":5126,
			"count":248,
			"type":"VEC3"
		},
		{
			"bufferView":2,
			"componentType":5126,
			"count":248,
			"type":"VEC2"
		},
		{
			"bufferView":3,
			"componentType":5123,
			"count":948,
			"type":"SCALAR"
		}
	],
	"bufferViews":[
		{
			"buffer":0,
			"byteLength":2976,
			"byteOffset":0,
			"target":34962
		},
		{
			"buffer":0,
			"byteLength":2976,
			"byteOffset":2976,
			"target":34962
		},
		{
			"buffer":0,
			"byteLength":1984,
			"byteOffset":5952,
			"target":34962
		},
		{
			"buffer":0,
			"byteLength":1896,
			"byteOffset":7936,
			"target":34963
		}
	],
	"buffers":[
		{
			"byteLength":9832,
			"uri":"book.bin"
		}
	]
}
